<svg
  width="50"
  height="50"
  xmlns="http://www.w3.org/2000/svg"
  viewBox="0 0 512 512"
>
  <path
    fill="#FFFFFF"
    d="M 250.74219 4.1152344 C 114.56666
                4.1152344 4.1132812 114.56757 4.1132812 250.74219 C 4.1132812
                386.91681 114.56666 497.36914 250.74219 497.36914 C 406.32304
                493.64855 355.06789 446.33896 507.88672 507.88477 C 426.00994
                366.80403 496.1361 363.24514 497.37109 250.74219 C 497.37109
                114.56757 386.91773 4.1152344 250.74219 4.1152344 z M 256
                52.679688 C 368.16204 51.314792 459.13867 141.26474 459.13867
                253.52734 C 457.63488 340.20871 390.87182 353.63895 455.44531
                454.51172 C 337.56597 399.75172 362.64201 458.89153 256
                459.32031 C 143.83798 460.68522 52.861328 370.73523 52.861328
                258.47266 C 52.861328 146.21009 143.83798 54.044581 256
                52.679688 z M 256.62109 110.7793 C 234.78534 110.7793 217.08417
                114.19004 203.51953 121.00977 C 189.95489 127.69576 183.17187
                136.92209 183.17188 148.68945 C 183.17188 156.57893 185.98501
                163.86674 191.60938 170.55273 C 197.23373 177.10502 208.15189
                186.13093 224.36328 197.63086 C 239.08587 208.06102 250.5824
                217.02144 258.85352 224.50977 C 229.24291 227.98649 204.26492
                238.01442 183.91797 254.5957 C 163.73644 271.17699 153.64453
                291.83601 153.64453 316.57422 C 153.64453 342.24847 162.82562
                362.77454 181.1875 378.15234 C 199.54939 393.53015 222.04668
                401.2207 248.67969 401.2207 C 277.95945 401.2207 303.51776
                391.65908 325.35352 372.53711 C 347.35469 353.28143 358.35547
                331.08468 358.35547 305.94531 C 358.35547 291.63727 354.63346
                278.06369 347.18945 265.22656 C 339.74545 252.38944 330.06862
                241.49049 318.1582 232.53125 C 306.41321 223.57201 286.23136
                211.13729 257.61328 195.22461 C 230.81486 180.38168 214.18976
                170.1514 207.73828 164.53516 C 201.28681 158.91892 198.06055
                152.90099 198.06055 146.48242 C 198.06055 139.6627 201.9478
                134.04753 209.72266 129.63477 C 217.66293 125.22201 227.75483
                123.01563 239.99609 123.01562 C 249.59059 123.01563 257.94348
                124.95416 265.05664 128.83203 C 272.33523 132.5762 281.18581
                139.12788 291.60742 148.48828 C 301.86361 157.71496 310.79682
                162.33008 318.40625 162.33008 C 323.69977 162.33008 328.33065
                160.65745 332.30078 157.31445 C 336.27092 153.97145 338.25586
                149.75909 338.25586 144.67773 C 338.25586 134.11385 330.06822
                125.82404 313.69141 119.80664 C 297.48001 113.78924 278.45685
                110.7793 256.62109 110.7793 z M 269.77148 233.73633 C 299.21667
                257.93965 313.93945 285.81903 313.93945 317.37695 C 313.93945
                339.17332 308.64562 356.491 298.05859 369.32812 C 287.47156
                382.03153 273.9901 388.38281 257.61328 388.38281 C 241.89816
                388.38281 228.08424 381.76367 216.17383 368.52539 C 204.42884
                355.28711 198.55664 336.69956 198.55664 312.76367 C 198.55664
                266.36282 222.29526 240.02117 269.77148 233.73633 z "
  />
</svg>
