<svg
  width="50"
  height="50"
  xmlns="http://www.w3.org/2000/svg"
  viewBox="0 0 512 512"
>
  <g transform="matrix(10.6664 0 0 10.67694 -908.435 -905.267)">
    <path
      fill="#FFFFFF"
      d="M109.168 84.884c-13.188 0-23.881 10.691-23.881 23.88 0 13.189 10.693 23.88 23.881 23.88 13.19 0 23.882-10.691 23.882-23.88 0-13.189-10.693-23.88-23.882-23.88zm-2.617 9.38c6.547 0 11.855 5.298 11.855 11.831 0 .964-.783 1.746-1.75 1.746-.965 0-1.749-.782-1.749-1.746 0-4.605-3.74-8.34-8.356-8.34-.966 0-1.75-.78-1.75-1.745 0-.964.784-1.745 1.75-1.745zm-.028 5.34c.966 0 1.75.782 1.75 1.746s-.784 1.745-1.75 1.745c-4.615 0-8.356 3.732-8.356 8.338 0 .964-.783 1.745-1.75 1.745a1.746 1.746 0 01-1.747-1.745c0-6.533 5.306-11.828 11.853-11.828zm15.396 4.746c.966 0 1.748.781 1.748 1.745 0 6.534-5.307 11.829-11.853 11.829-.966 0-1.75-.782-1.75-1.746 0-.963.784-1.745 1.75-1.745 4.614 0 8.356-3.732 8.356-8.338 0-.964.783-1.745 1.75-1.745zm-20.211 5.338c.966 0 1.75.781 1.75 1.745 0 4.606 3.74 8.34 8.356 8.34.966 0 1.749.781 1.749 1.745 0 .964-.783 1.745-1.75 1.745-6.546 0-11.854-5.297-11.854-11.83 0-.964.783-1.745 1.749-1.745z"
    />
  </g>
</svg>
