<svg
  width="50"
  height="50"
  xmlns="http://www.w3.org/2000/svg"
  viewBox="0 0 512 512"
>
  <g transform="matrix(4.3984138,0,0,4.6656354,0.23248043,-14.699168)">
    <path fill="#FFFFFF" d="M 58.4,62.2 54.9,55.8 62,55.6 Z" />
    <path
      fill="#FFFFFF"
      d="m 85.5,57.5 c 26.1,4.2 29.8,10.7 29.8,10.7 v 1.2 c 0,0.2 -0.1,0.4 -0.2,0.7 -0.1,0.3 -2.7,5.7 -19.6,9.3 z"
    />
    <path
      d="m 19.8,78.5 c -5.9,15.7 -2.9,20.6 -2.7,21 0.1,0.2 0.2,0.4 0.4,0.5 0.4,0 0.8,-0.1 1.2,-0.2 0,0 10.7,-0.5 23.2,-18.3 z"
      fill="#FFFFFF"
    />
    <path
      fill="#FFFFFF"
      d="M 58.8,18.6 C 44.5,2.9 37.5,3.8 37.1,3.9 c -0.2,0 -0.5,0.1 -0.7,0.2 -0.5,0.2 -1,1.8 -1,1.8 0,0 -3,8.7 9.1,31.9 z"
    />
    <path
      d="m 71.2,78.8 c 19.4,22.2 26.2,21 26.2,21 0.4,0.1 0.9,0.2 1.3,0.2 0.2,-0.1 0.3,-0.3 0.4,-0.5 0.3,-0.4 5.8,-9.4 -12.8,-41.8 z"
      fill="#FFFFFF"
      stroke="#000000"
    />
    <path
      d="M 46.1,82.2 C 6.1,80.5 1.3,70.6 1.1,70.1 1.1,69.9 1,69.7 1,69.5 c 0.1,-0.7 1.5,-2 1.5,-2 0,0 10.6,-6.5 28.3,-10 z"
      fill="#FFFFFF"
      stroke="#000000"
    />
    <path
      d="M 73.8,35.4 C 84.2,10.7 80.2,5 80.2,5 80.1,4.7 80,4.3 79.9,4 79.7,3.9 79.5,3.9 79.2,3.8 78.7,3.7 67.8,2.3 44.8,34.5 Z"
      fill="#FFFFFF"
      stroke="#000000"
    />
    <path
      d="m 58,97.4 c -14.2,15.4 -21,14.5 -21.4,14.5 -0.6,-0.2 -1.2,-0.5 -1.7,-0.8 l -17.3,-11 C 24.9,98.5 33.9,89.9 43.3,78.8 Z"
      fill="#000000"
      stroke="#000000"
    />
    <path
      d="m 58.6,98 c -14.2,15.4 -21,14.5 -21.4,14.5 -0.6,-0.2 -1.2,-0.5 -1.7,-0.8 L 17.6,100 c 7.3,-1.6 16.9,-9.6 26.3,-20.7 z"
      fill="#FFFFFF"
      stroke="#000000"
    />
    <path
      d="m 20.7,38 c -6.3,-16.2 -3.2,-21.3 -3,-21.6 0.4,-0.5 0.9,-0.9 1.4,-1.2 l 17.3,-11 c -1.5,7.1 2.3,18 8.2,30.7 z"
      fill="#000000"
      stroke="#000000"
    />
    <path
      d="m 57.2,57.2 c -8.7,0 -17.4,0.7 -26,1.9 0.3,0.5 4.3,7.2 7.2,11.7 27.8,42.8 40.8,41.1 41.4,41 0.6,-0.2 1.2,-0.5 1.7,-0.8 L 98.8,100 C 87,97.5 70.6,78.2 57.2,57.2 Z"
      fill="#FFFFFF"
      stroke="#000000"
    />
    <path
      d="M 20.1,38.5 C 13.8,22.3 16.9,17.2 17.1,16.9 17.5,16.4 18,16 18.5,15.7 l 18,-11.6 c -1.5,7.1 1.7,18.6 7.6,31.2 z"
      fill="#FFFFFF"
      stroke="#000000"
    />
    <path
      d="m 85.5,59.6 c 13.5,1.9 24.7,4.7 29.8,9.8 V 48.9 c 0,-0.6 -0.1,-1.3 -0.2,-1.9 -0.1,-0.3 -2.7,-5.6 -19,-9.1 z"
      fill="#000000"
      stroke="#000000"
    />
    <path
      d="m 85.5,58.8 c 13.5,1.9 24.7,5.5 29.8,10.6 V 48.1 c 0,-0.6 -0.1,-1.3 -0.2,-1.9 -0.1,-0.3 -2.7,-5.6 -19,-9.1 z"
      fill="#FFFFFF"
      stroke="#000000"
    />
    <path
      d="M 73.2,35.1 C 70.2,35 63.7,34.7 58.1,34.7 7.1,34.7 1.4,46.5 1.2,47 1,47.6 1,48.3 1,48.9 v 20.6 c 5,-5 15.9,-7.7 29.2,-9.7 8.6,-1.2 17.2,-1.9 25.9,-2 h 4.8 c -0.1,0 15.4,-22.6 12.3,-22.7 z"
      fill="#FFFFFF"
      stroke="#000000"
    />
    <path
      d="M 73.2,34.3 C 70.2,34.2 63.7,33.9 58.1,33.9 7,33.9 1.4,45.7 1.1,46.3 1,46.8 1,47.5 1,48.1 V 69.5 C 6,64.5 16.9,61 30.2,59 38.8,57.8 47.4,57.1 56.1,57 h 4.8 c 2.3,0.1 15.4,-22.6 12.3,-22.7 z"
      fill="#FFFFFF"
      stroke="#000000"
    />
    <path
      d="M 58.2,58.8 C 72.1,37.9 82.4,16 79.8,4.1 l 17.3,11 c 0.5,0.3 1,0.7 1.4,1.2 0.3,0.5 7.1,11.7 -20.7,54.5 -2,3.2 -3.9,6.9 -4.6,7.2 C 69.1,74 60.6,62.4 58.5,59.5 58.3,59.1 58.2,58.8 58.2,58.8 Z"
      fill="#FFFFFF"
      stroke="#000000"
    />
    <path
      d="M 78.5,71.4 C 106.3,28.6 99.5,17.4 99.2,16.9 98.8,16.4 98.3,16 97.8,15.7 L 79.8,4.1 c 2.5,11.8 -7.4,34.6 -21.2,55.5 4.6,7.1 9.4,14 14.5,19.9 1,-1.2 3.6,-5.2 5.4,-8.1 z"
      fill="#FFFFFF"
      stroke="#000000"
    />
    <path
      d="M 72.6,80.2 C 72.7,80.1 72.8,80.1 72.8,80 67.5,73.8 62.6,67.2 58.1,60.3 c -0.1,0.1 -0.2,0.2 -0.2,0.4 0,-0.1 9.7,15.2 14.7,19.5 z"
      fill="#FFFFFF"
      stroke="#000000"
    />
    <path
      d="M 72.9,79.9 C 67.6,73.7 62.7,67.1 58.2,60.2 c -0.5,-0.8 -1.1,-1.6 -1.6,-2.4 -8.7,0 -17.4,0.7 -26,1.9 0.3,0.5 4.3,7.2 7.2,11.7 27.8,42.8 40.8,41.1 41.4,41 0.6,-0.2 1.2,-0.5 1.7,-0.8 L 98.8,100 C 91.4,98.4 82.1,90.6 72.9,79.9 Z"
      fill="#FFFFFF"
      stroke="#000000"
    />
  </g>
</svg>
